<?xml version="1.0" standalone="no"?>
<!DOCTYPE svg PUBLIC "-//W3C//DTD SVG 20010904//EN"
 "http://www.w3.org/TR/2001/REC-SVG-20010904/DTD/svg10.dtd">
<svg version="1.0" xmlns="http://www.w3.org/2000/svg"
 width="300.000000pt" height="299.000000pt" viewBox="0 0 300.000000 299.000000"
 preserveAspectRatio="xMidYMid meet">
<metadata>
Created by potrace 1.10, written by Peter Selinger 2001-2011
</metadata>
<g transform="translate(0.000000,299.000000) scale(0.100000,-0.100000)"
fill="#000000" stroke="none">
<path d="M1300 2611 c-30 -10 -136 -45 -235 -77 l-180 -57 -79 -71 c-204 -183
-303 -276 -313 -298 -13 -24 -150 -337 -177 -402 -13 -32 -16 -82 -16 -292 l0
-253 29 -63 c16 -35 47 -106 69 -158 100 -235 102 -237 218 -340 59 -52 143
-127 187 -167 l79 -72 236 -77 236 -77 120 12 c67 7 159 16 206 21 47 5 107
12 134 14 51 6 96 28 349 175 l139 79 149 206 c103 142 152 219 159 248 6 24
31 135 55 248 38 179 42 212 34 250 -16 69 -58 266 -74 349 -8 41 -23 90 -33
110 -22 41 -275 393 -294 408 -34 28 -407 235 -438 243 -38 10 -159 26 -315
40 -55 5 -120 12 -145 14 -29 4 -64 -1 -100 -13z m252 -16 c78 -8 170 -17 203
-20 33 -4 70 -8 82 -11 l23 -4 -19 -53 c-11 -28 -62 -185 -115 -348 l-96 -295
-88 4 c-48 2 -88 5 -90 7 -3 3 -17 120 -38 320 -17 165 -28 267 -40 364 -7 61
-6 63 14 57 11 -4 85 -13 164 -21z m-197 3 c3 -7 12 -85 21 -173 8 -88 19
-194 24 -235 4 -41 13 -122 19 -180 7 -58 14 -113 17 -122 4 -14 -1 -18 -24
-18 -16 0 -55 -11 -87 -25 -32 -14 -58 -25 -59 -23 -5 6 -50 85 -74 128 -14
25 -58 102 -98 172 -41 70 -82 142 -93 160 -10 18 -38 66 -61 106 -23 40 -41
75 -39 77 2 2 42 15 89 30 47 15 144 47 215 71 150 49 144 48 150 32z m656
-120 c270 -153 280 -160 326 -222 171 -234 243 -340 236 -346 -7 -8 -658 -300
-667 -300 -2 0 -6 10 -10 23 -3 13 -33 55 -66 93 -48 54 -74 74 -118 92 -31
13 -60 27 -64 31 -4 4 12 65 36 136 24 72 76 230 116 352 l72 221 47 -27 c26
-16 67 -39 92 -53z m-1099 -68 c14 -25 96 -168 182 -318 86 -150 154 -277 151
-282 -4 -6 -12 -10 -19 -10 -7 0 -32 -23 -56 -51 -23 -27 -48 -48 -54 -46 -7
3 -86 59 -177 124 -90 66 -222 161 -293 213 -118 85 -127 94 -110 107 20 15
232 204 302 270 25 24 46 42 47 40 1 -1 13 -22 27 -47z m-82 -520 c140 -100
261 -189 269 -196 12 -10 11 -16 -7 -39 -11 -14 -26 -51 -33 -81 -7 -30 -15
-54 -18 -54 -4 0 -60 11 -126 25 -66 14 -154 33 -195 41 -41 9 -91 19 -110 24
-35 8 -154 33 -239 51 -24 5 -46 11 -49 14 -3 2 2 19 10 37 9 18 32 71 53 118
20 47 45 103 55 125 10 22 30 68 45 103 l28 62 31 -23 c17 -13 146 -106 286
-207z m1767 -23 c2 -12 10 -49 18 -82 11 -50 29 -133 60 -280 2 -11 7 -35 11
-52 l7 -33 -372 0 -371 0 0 30 c0 17 -9 56 -20 87 -11 32 -20 58 -20 59 0 1
15 7 33 14 37 16 210 91 282 125 28 12 102 46 165 73 63 28 133 60 155 71 44
21 47 21 52 -12z m-1152 -89 c3 -46 10 -108 15 -138 4 -30 11 -86 15 -125 l6
-70 -46 79 c-25 44 -45 81 -45 82 0 1 -26 47 -59 102 l-58 99 56 25 c31 14 68
26 82 27 27 1 27 0 34 -81z m170 70 c4 -4 -21 -93 -55 -198 -41 -124 -59 -195
-53 -201 9 -9 163 148 256 260 l28 34 33 -32 c43 -42 74 -98 61 -109 -6 -5
-62 -32 -125 -60 -183 -80 -232 -104 -227 -108 4 -4 124 45 232 96 22 10 58
26 80 36 22 10 43 20 46 21 9 5 49 -114 49 -144 l0 -23 -206 0 c-115 0 -213 4
-224 10 -13 7 -21 6 -29 -4 -10 -12 -16 -12 -41 0 -26 13 -175 48 -322 75 -32
6 -58 14 -58 18 1 22 31 116 44 137 l16 24 143 -103 c189 -136 215 -153 222
-134 8 20 -2 138 -31 366 l-7 53 81 -3 c44 -2 84 -7 87 -11z m78 -36 c51 -20
90 -48 85 -61 -3 -8 -148 -173 -238 -271 -17 -19 -29 -27 -27 -18 52 163 123
368 127 368 3 0 27 -8 53 -18z m-390 -83 c20 -35 40 -71 44 -79 4 -8 21 -37
39 -65 17 -27 41 -69 53 -93 l22 -43 -108 79 c-59 43 -132 96 -160 116 -29 21
-53 41 -53 44 0 15 102 113 113 109 7 -2 29 -33 50 -68z m-883 -93 c36 -8 153
-33 260 -56 107 -22 211 -44 230 -49 19 -6 55 -13 80 -16 l45 -7 0 -91 0 -92
-35 -6 c-71 -14 -197 -39 -260 -53 -36 -7 -143 -30 -239 -49 -96 -20 -177 -39
-180 -43 -9 -9 45 -1 189 29 69 15 212 44 318 66 106 22 197 43 202 46 5 3 14
-13 20 -36 6 -23 22 -59 36 -80 25 -40 30 -59 16 -59 -5 0 -34 -19 -65 -42
-31 -24 -72 -54 -92 -68 -20 -14 -60 -43 -90 -65 -30 -22 -70 -51 -90 -65 -20
-14 -44 -32 -55 -40 -11 -8 -36 -26 -55 -40 -20 -14 -58 -42 -85 -62 -27 -21
-52 -38 -55 -38 -3 0 -13 17 -22 38 -8 20 -23 55 -33 77 -10 22 -48 108 -84
192 l-66 152 0 241 0 240 23 -4 c12 -3 51 -12 87 -20z m798 -170 c86 -18 175
-37 197 -41 l40 -8 -55 -13 c-30 -7 -69 -16 -87 -19 -27 -4 -158 -31 -239 -50
-20 -4 -22 0 -27 61 -4 61 -1 104 10 104 2 0 75 -15 161 -34z m718 -73 c-2
-10 -7 -43 -11 -73 -10 -93 2 -92 -190 -5 -89 40 -199 84 -203 81 -4 -5 7 -10
168 -81 163 -72 190 -85 190 -90 0 -9 -68 -111 -82 -122 -11 -10 -40 16 -152
138 -91 99 -142 147 -148 141 -7 -7 8 -67 45 -179 30 -92 57 -178 61 -190 6
-19 2 -22 -44 -32 -28 -6 -67 -11 -87 -11 l-36 0 8 58 c34 271 41 362 26 362
-7 0 -10 -4 -7 -9 4 -5 1 -51 -4 -103 -6 -51 -15 -138 -21 -193 -6 -55 -13
-102 -15 -104 -7 -7 -124 21 -141 35 -16 11 -16 15 -4 36 8 13 30 50 49 83 19
33 42 74 52 90 66 116 81 146 75 155 -3 5 -10 10 -14 10 -7 0 -100 -66 -246
-173 -33 -24 -65 -47 -71 -50 -12 -7 -60 73 -74 122 -8 29 -8 29 48 40 32 6
113 23 182 37 69 15 146 28 173 29 26 1 50 5 54 9 3 3 100 6 215 6 195 0 209
-1 204 -17z m750 -10 c-4 -16 -9 -39 -12 -53 -2 -14 -8 -43 -13 -65 -5 -22
-21 -101 -36 -175 -15 -74 -31 -138 -35 -143 -6 -7 -50 11 -185 73 -22 10
-119 53 -215 95 -96 42 -197 86 -223 98 -36 16 -46 25 -41 36 7 16 9 30 20
119 l5 42 370 0 371 0 -6 -27z m-1242 -35 c-9 -18 -27 -49 -39 -68 -23 -37
-59 -99 -108 -187 -15 -29 -31 -53 -33 -53 -10 0 -94 61 -114 82 -15 17 -20
18 -20 7 0 -13 49 -52 123 -100 6 -4 2 -18 -10 -35 -11 -16 -64 -105 -118
-199 -54 -93 -130 -225 -168 -292 l-70 -122 -26 19 c-49 35 -327 295 -327 305
0 6 151 119 336 252 445 321 430 311 508 370 37 29 70 52 75 53 4 0 0 -15 -9
-32z m158 -65 c47 -54 107 -121 132 -149 l46 -52 -55 -41 c-30 -23 -62 -41
-72 -41 -15 0 -30 33 -76 176 -32 96 -61 182 -64 190 -10 27 4 14 89 -83z
m380 -92 c61 -28 168 -75 453 -201 77 -33 141 -63 143 -65 4 -4 -37 -64 -123
-180 -22 -30 -65 -90 -95 -134 -30 -44 -58 -80 -62 -81 -4 0 -37 35 -74 78
-84 96 -188 212 -323 360 -101 110 -103 114 -83 128 11 8 35 39 52 69 17 30
35 55 40 55 5 0 37 -13 72 -29z m-175 -135 c8 -14 129 -149 361 -403 l123
-135 -158 -90 c-87 -49 -181 -103 -209 -119 l-52 -28 -25 72 c-13 40 -65 196
-114 347 l-90 275 40 23 c21 12 53 33 69 47 34 29 44 31 55 11z m-511 -61 c16
-8 38 -15 49 -15 38 0 94 -21 90 -33 -2 -7 -9 -61 -15 -122 -7 -60 -16 -144
-21 -185 -4 -41 -15 -147 -24 -235 -8 -88 -20 -164 -25 -169 -6 -6 -76 13
-187 48 -98 32 -194 63 -213 69 -19 6 -39 14 -44 18 -4 4 12 40 36 81 25 40
56 93 70 118 14 25 60 106 103 180 43 74 89 155 103 180 28 50 46 80 48 80 1
0 15 -7 30 -15z m354 -87 c13 -40 63 -194 112 -341 48 -147 88 -274 88 -282 0
-9 -21 -15 -77 -20 -43 -3 -103 -10 -133 -15 -30 -5 -95 -12 -145 -15 -49 -4
-99 -9 -109 -12 -18 -5 -19 -1 -12 53 17 142 47 417 61 559 13 127 8 120 68
122 28 1 63 6 77 12 42 17 46 13 70 -61z"/>
<path d="M2259 2287 c-9 -12 -67 -78 -130 -148 -259 -284 -340 -379 -326 -379
2 0 53 55 113 122 60 67 134 149 164 183 169 188 196 218 203 231 13 22 -6 16
-24 -9z"/>
</g>
</svg>
